<?xml version="1.0" encoding="utf-8"?>
<!-- Generator: Adobe Illustrator 13.0.0, SVG Export Plug-In . SVG Version: 6.00 Build 14948)  -->
<!DOCTYPE svg PUBLIC "-//W3C//DTD SVG 1.1//EN" "http://www.w3.org/Graphics/SVG/1.1/DTD/svg11.dtd">
<svg version="1.1" id="Ebene_1" xmlns="http://www.w3.org/2000/svg" xmlns:xlink="http://www.w3.org/1999/xlink" x="0px" y="0px"
	 width="554.676px" height="569.297px" viewBox="0 0 554.676 569.297" enable-background="new 0 0 554.676 569.297"
	 xml:space="preserve">
<path fill="#FFFFFF" d="M453.917,30.785c-8.271,3.857-19.51,5.238-33.772-1.489c-31.619-14.917-48.007-19.968-72.271-5.795
	l-4.198,2.458l1.185,4.637c-44.851-6.915-90.194-6.915-135.052,0l1.184-4.637l-4.198-2.458
	c-24.263-14.182-40.652-9.122-72.271,5.795c-14.271,6.727-25.465,5.255-33.781,1.498C90.758,26.282,81.285,13.337,74.863,0
	c-5.121,15.167-4.224,31.69-4.09,33.395c0.745,9.929,3.624,20.371,8.28,30.3c-4.728-0.394-12.541-1.058-12.541-1.058l-1.749,2.583
	l-3.597,5.516c-16.11,24.685-42.571,49.38-42.84,49.631l-7.356,6.817l4.046,17.581c0.602,2.646,15.302,65.921,52.242,147.888
	c13.427,29.771,28.425,58.547,44.526,85.825c-7.167,0-12.629,0-18.729,0c0.278-0.835,2.987-9.016,2.987-9.016H0l7.849,8.665
	c0.306,0.351,7.678,8.674,7.678,26.184v101.127l6.45-1.65c9.032-2.332,17.223-4.063,26.722-6.063l32.444-7.14l0.529-3.409
	c0,0,0.296-1.784,0.602-3.569c25.753-5.615,58.403-10.45,92.785-13.716c25.591,31.431,53.04,59.246,81.663,82.595l20.641,16.811
	L298,552.486c28.749-23.447,56.295-51.396,81.985-82.989c33.916,3.059,63.524,7.571,88.13,13.41
	c1.955,3.031,6.217,7.553,15.15,9.947c8.172,2.207,15.76,3.956,21.357,4.934c11.688,2.028,20.694,0.485,26.759-4.61
	c5.282-4.449,7.964-11.185,7.964-20.039v-30.202c0-10.494-4.934-17.948-9.211-22.515c3.299-1.874,9.211-5.237,9.211-5.237v-12.19
	c0-16.003,7.41-24.561,7.725-24.92l7.605-8.583l-11.438-0.027h-56.25c-10.208,0-16.173,5.526-18.953,9.016
	c-3.355,0-15.824,0-25.099,0c16.102-27.269,31.1-56.045,44.527-85.825c36.938-81.967,51.64-145.242,52.249-147.897l4.038-17.572
	l-7.348-6.817c-0.269-0.251-26.748-24.946-42.84-49.631l-5.284-8.099c0,0-7.902,0.664-12.665,1.066
	c4.655-9.938,7.399-20.389,8.279-30.309c0.35-3.839,0.152-22.165-4.082-33.395C476.163,7.947,467.704,24.372,453.917,30.785"/>
<path d="M486.989,374.63c-11.58,0-16.299,9.007-16.299,9.007h-36.74c20.083-33.181,36.238-65.23,48.806-93.108
	c36.659-81.321,51.325-144.282,51.926-146.919l3.374-14.675l-5.167-4.781c-0.27-0.26-27.188-25.358-43.648-50.6l-3.605-5.516
	c0,0-6.755,0.646-18.873,1.597c9.688-16.181,14.271-35.656,11.248-51.515l-0.654-3.436l-1.73,3.032
	c-0.809,1.4-20.004,34.024-57.678,16.245c-30.569-14.415-45.227-18.999-67.463-6.001l-0.844,0.493l2.153,8.406
	c-49.316-8.495-99.603-8.495-148.919,0l2.153-8.406l-0.843-0.493c-22.228-12.997-36.894-8.414-67.463,6.001
	c-37.674,17.779-56.87-14.845-57.668-16.245l-1.741-3.032l-0.654,3.436c-3.014,15.859,1.569,35.333,11.248,51.506
	c-12.083-0.941-18.819-1.588-18.819-1.588l-3.606,5.516c-16.459,25.242-43.378,50.34-43.648,50.6l-5.167,4.781l3.373,14.675
	c0.61,2.637,15.276,65.598,51.918,146.919c12.575,27.878,28.731,59.928,48.814,93.108H85.905l2.997-9.007H11.634
	c0,0,9.051,9.616,9.051,29.683c0,22.129,0,94.48,0,94.48c16.756-4.305,29.996-6.476,55.9-12.478l1.193-7.023
	c26.417-5.974,61.023-11.257,99.459-14.8c24.058,29.789,51.533,58.529,82.739,83.994l17.384,14.155l17.383-14.155
	c31.351-25.573,58.934-54.456,83.063-84.389c31.709,2.762,64.691,7.212,93.691,14.271c0,0,2.09,6.539,13.104,9.508
	c7.571,2.037,15.133,3.822,20.91,4.826c19.133,3.327,28.668-3.974,28.668-19.563v-30.202c0-15.428-12.872-23.438-12.872-23.438
	l12.872-7.311c0,0,0-2.026,0-9.193c0-18.434,9.059-28.364,9.059-28.364S514.024,374.63,486.989,374.63"/>
<path fill="#FFFFFF" d="M419.964,69.804c-1.461,4.055-15.419,42.822-16.826,46.733c-81.241-28.614-170.359-28.614-251.599,0
	c-1.409-3.912-15.366-42.679-16.828-46.733C226.806,37.279,327.871,37.279,419.964,69.804z M130.513,65.768l-2.421,0.879
	l20.317,56.439l2.431-0.871c81.573-29.367,171.425-29.367,252.999,0l2.422,0.871l20.325-56.439l-2.431-0.879
	C329.476,31.682,225.2,31.682,130.513,65.768"/>
<path fill="#FFFFFF" d="M194.792,32.732c-19.115-7.913-31.377-0.126-45.917,7.023c-4.808,2.377-9.795,4.834-14.693,6.736
	c-14.639,5.706-29.314,4.664-41.315-2.925l-5.831-3.695l1.983,6.62c5.471,18.227,16.334,32.229,30.569,39.405
	c0.627,0.314,1.265,0.565,1.892,0.852l-2.915-7.374c-9.76-6.01-17.563-15.787-22.479-28.229c12.145,5.454,26.103,5.553,39.979,0.153
	c5.086-1.992,10.181-4.485,15.088-6.907c8.324-4.099,17.437-10.136,30.139-10.325l-23.322,16.46L194.792,32.732"/>
<path fill="#FFFFFF" d="M461.801,43.566c-12.002,7.589-26.668,8.63-41.316,2.925c-4.889-1.902-9.875-4.359-14.692-6.736
	c-14.531-7.149-26.793-14.936-45.908-7.023c1.085-0.108,2.054-0.108,2.978-0.027l-2.978,0.027l36.813,17.795l-23.313-16.46
	c12.692,0.188,21.806,6.226,30.13,10.325c4.916,2.422,10.002,4.916,15.097,6.907c13.867,5.4,27.825,5.301,39.979-0.153
	c-4.925,12.433-12.711,22.2-22.47,28.22l-2.916,7.373c0.629-0.286,1.256-0.528,1.866-0.842
	c14.253-7.177,25.107-21.178,30.578-39.405l1.991-6.62L461.801,43.566"/>
<path fill="#13529B" d="M467.649,106.186c-11.077,0.853-25.762,1.884-43.289,2.898l-11.284,28.488l-2.995-1.192
	c-85.601-33.889-179.884-33.889-265.476,0l-3.004,1.192l-11.275-28.488c-17.527-1.014-32.175-2.045-43.253-2.898
	c-10.522,13.913-22.013,26.354-30.121,34.606c4.135,16.102,18.909,69.527,48.294,134.739c6.396,14.191,13.85,29.601,22.281,45.675
	c0.7-2.45,1.444-5.293,1.731-6.172c6.594-23.269,18.739-45.316,36.553-64c58.547-61.399,156.132-63.723,217.531-5.194
	c18.971,18.083,32.282,39.907,39.934,63.229c0.861,2.763,2.396,8.485,3.418,13.096c8.638-16.433,16.254-32.157,22.783-46.634
	c29.386-65.212,44.159-118.637,48.294-134.739C489.662,132.54,478.171,120.108,467.649,106.186z M292.089,488.263
	c0,0-27.072-16.846-27.816-17.294c-0.861,0.089-27.053,3.058-27.053,3.058l14.478-13.867c-9.859,0.233-19.635,0.628-29.314,1.122
	c16.755,18.971,35.037,37.225,54.977,54.035c19.993-16.855,38.319-35.163,55.102-54.188c-4.745-0.224-9.418-0.412-13.938-0.565
	L292.089,488.263"/>
<path d="M247.347,383.637c3.749-6.566,9.204-9.4,29.798-9.4c20.596,0,25.699,3.597,29.592,9.4h84.058
	c13.554-20.937,25.789-40.634,36.149-60.323c-1.005-4.754-2.735-11.248-3.669-14.244c-7.651-23.322-20.963-45.146-39.934-63.229
	c-61.399-58.529-158.984-56.206-217.531,5.194c-17.814,18.684-29.959,40.732-36.553,64c-0.358,1.104-1.435,5.274-2.242,7.921
	c10.513,20.065,23.053,39.288,36.894,60.682H247.347"/>
<path fill="#13529B" d="M219.747,274.679c0,0-18.873,12.647-33.198,35.378c0,0,3.723,13.23,10.854,25.689
	c0,0-5.435-14.738-5.426-25.269C196.963,297.292,219.747,274.679,219.747,274.679"/>
<path fill="#13529B" d="M334.239,239.113c0.744,14.433-2.78,26.586-2.78,26.586s10.387,4.485,20.308,13.5
	c0,0-11.554-12.872-14.02-14.603C335.288,262.864,339.226,244.683,334.239,239.113"/>
<path fill="#B0B0B0" d="M417.722,284.402c-2.197-4.226-4.574-8.352-7.158-12.379c6.127-14.953,14.989-30.238,27.484-41.261
	c47.272-41.747,41.782-73.949,38.222-80.354c-3.086,19.376-13.931,39.343-54.941,61.597c-17.062,9.257-29.52,16.828-39.907,26.237
	c-1.283-1.112-2.575-2.206-3.876-3.283c1.669-12.172,6.082-23.537,15.188-31.771c41.746-37.746,37.242-71.984,33.682-78.397
	c-3.077,19.384-9.473,34.768-45.881,57.219c-16.657,10.271-28.292,20.38-37.307,31.432c-3.239-1.499-6.512-2.907-9.841-4.172
	c-0.824-8.323,1.274-17.006,7.948-26.461c19.939-28.237,10.53-54.214,6.987-61.13c-0.216,20.003-6.118,30.094-27.941,54.116
	c-8.352,9.203-14.729,17.294-19.313,25.035c-1.784-0.27-3.579-0.547-5.391-0.762c-0.735-9.607-3.122-19.573-8.172-30.292
	c-12.37-26.282-14.809-36.284-8.369-53.049c-5.651,4.791-22.981,23.771-13.715,53.004c2.88,9.068,1.562,19.42-2.072,29.888
	c-3.292,0.287-6.565,0.655-9.795,1.13c-4.575-7.714-10.952-15.787-19.268-24.955c-21.823-24.022-27.726-34.113-27.94-54.116
	c-3.543,6.916-12.954,32.893,6.987,61.13c6.637,9.4,8.755,18.04,7.965,26.318c-3.392,1.273-6.728,2.646-10.002,4.144
	c-8.988-10.988-20.594-21.034-37.163-31.26c-36.409-22.452-42.805-37.835-45.881-57.219c-3.561,6.414-8.064,40.652,33.682,78.397
	c9.014,8.145,13.428,19.357,15.142,31.386c-1.391,1.13-2.745,2.278-4.091,3.444c-10.333-9.302-22.721-16.837-39.647-26.013
	c-41.02-22.254-51.855-42.221-54.933-61.597c-3.57,6.405-9.06,38.607,38.212,80.354c12.351,10.898,21.169,25.958,27.277,40.759
	c-2.637,4.072-5.077,8.279-7.346,12.585c-6.271-4.503-14.119-8.388-24.004-11.105c-3.57-0.987-6.835-2.153-9.938-3.4
	c0.861,1.964,1.74,3.938,2.637,5.93c5.471,12.127,11.688,25.125,18.639,38.687l-0.009,0.019c0.709,1.39,1.48,2.808,2.207,4.206
	c0.475,0.915,0.969,1.849,1.444,2.764c0.7-2.45,1.444-5.293,1.731-6.172c6.594-23.269,18.739-45.316,36.553-64
	c58.547-61.399,156.132-63.723,217.531-5.194c18.971,18.083,32.282,39.907,39.934,63.229c0.861,2.763,2.404,8.494,3.418,13.104
	c0.395-0.744,0.779-1.489,1.166-2.224c0.7-1.328,1.435-2.691,2.116-4.01l-0.009-0.045c7.302-14.154,13.813-27.735,19.51-40.365
	c0.896-2,1.785-3.983,2.655-5.956c-3.131,1.256-6.414,2.43-10.011,3.427C432.03,275.782,424.064,279.773,417.722,284.402"/>
<path fill="#FFFFFF" d="M280.876,531.488c0,0-2.377,1.947-3.516,2.871c-1.148-0.941-3.535-2.88-3.535-2.88
	c-25.878-21.115-49.12-44.608-69.912-69.113c-3.121,0.215-6.207,0.439-9.292,0.672c21.994,26.427,46.778,51.811,74.595,74.506
	l8.145,6.763l8.145-6.763c27.924-22.784,52.797-48.286,74.862-74.811c-3.147-0.224-6.261-0.43-9.354-0.619
	C330.167,486.711,306.854,510.302,280.876,531.488z M519.908,131.787c-0.242-0.224-24.676-22.174-40.096-46.51l-1.605-2.529
	l-2.968,0.287c-0.387,0.035-16.2,1.515-41.854,3.237l-3.095,7.822c19.232-1.157,34.408-2.296,44.284-3.095
	c13.662,19.438,31.396,37.549,39.29,45.281c-0.154,0.664-0.557,2.413-0.557,2.413c-0.592,2.556-14.693,63.293-50.546,142.829
	c-13.688,30.354-31.727,65.777-54.582,102.115h8.861c21.807-35.153,39.137-69.312,52.394-98.732
	c36.041-79.95,50.421-141.618,51.004-144.193l1.614-7.015L519.908,131.787z M41.423,138.711c0,0-0.233-0.995-0.565-2.43
	c7.885-7.723,25.619-25.843,39.289-45.281c9.875,0.799,25.035,1.938,44.239,3.095l-3.095-7.822
	c-25.626-1.731-41.432-3.202-41.8-3.237l-2.978-0.287l-1.597,2.529c-15.428,24.335-39.862,46.286-40.104,46.51l-2.153,1.91
	l1.615,7.015c0.592,2.575,14.971,64.243,51.012,144.193c13.258,29.421,30.588,63.579,52.395,98.732h8.861
	c-22.855-36.338-40.902-71.77-54.582-102.115C56.107,201.986,42.006,141.25,41.423,138.711"/>
<path fill="#FFFFFF" d="M391.252,78.855c0.853-1.112,1.713-2.225,2.574-3.337c-5.508-1.793-11.042-3.453-16.604-4.978
	c0,0,1.086,1.793,0.421,4.152c-0.663,2.36-1.165,4.154-1.165,4.154c-1.472,5.264-2.943,10.54-4.404,15.814
	c4.305,1.202,8.602,2.484,12.872,3.856c0.412-1.273,0.815-2.538,1.22-3.812c-1.856-0.592-3.723-1.176-5.588-1.74
	c0.726-2.395,1.452-4.799,2.18-7.203c1.901,0.583,3.803,1.174,5.704,1.784c0.412-1.273,0.817-2.538,1.229-3.812
	c-1.92-0.618-3.848-1.211-5.777-1.794c0.493-1.642,0.987-3.273,1.48-4.907C387.35,77.626,389.306,78.236,391.252,78.855z
	 M322.685,79.94c-0.063,0.475-1.3,0.601-2.089,0.501c-0.979-0.125-1.93-0.627-1.83-1.479c0.574-4.907,1.139-9.832,1.722-14.746
	c0.054-0.485,1.291-0.62,2.01-0.53c1.175,0.143,2.188,0.609,2.071,1.489C323.95,70.091,323.314,75.016,322.685,79.94z
	 M323.089,59.704c-9.194-1.084-10.253-0.449-10.665,3.965c-0.467,4.879-0.924,9.759-1.391,14.639
	c-0.43,4.637,0.888,5.202,9.068,6.162c8.379,1.059,9.626,0.727,10.307-3.795c0.727-4.843,1.453-9.696,2.181-14.54
	C333.27,61.624,331.908,60.816,323.089,59.704z M291.524,61.229c-0.089,2.449-0.161,4.314-0.161,4.314
	c-0.152,3.92-0.297,7.841-0.448,11.76c-0.019,0.52-1.238,0.745-2.019,0.726c-0.942-0.035-1.991-0.421-1.965-1.282
	c0.045-1.677,0.091-3.363,0.135-5.059c-2.457,0.376-4.916,0.762-7.355,1.175c-0.009,1.31-0.018,2.62-0.026,3.919
	c-0.027,4.477,1.192,5.051,9.077,5.266c8.423,0.314,9.625-0.107,9.895-4.628c0.395-6.566,0.788-13.124,1.174-19.681
	c-3.22-0.198-6.439-0.35-9.66-0.457C290.169,57.282,291.623,58.78,291.524,61.229z M240.539,71.554
	c-2.369-3.992-4.808-7.957-7.302-11.895c-2.96,0.35-5.92,0.735-8.871,1.157c0,0,1.274,0.996,1.812,2.896
	c0.978,7.104,1.964,14.2,2.942,21.295c2.135-0.296,4.279-0.565,6.422-0.833c-0.484-3.992-0.959-7.984-1.434-11.976
	c2.43,3.759,4.798,7.544,7.104,11.348c2.34-0.243,4.682-0.458,7.023-0.655c-0.682-8.182-1.355-16.353-2.036-24.533
	c-2.315,0.197-4.629,0.404-6.943,0.646C239.687,63.184,240.108,67.364,240.539,71.554z M204.229,78.846
	c-0.081-2.503-0.153-5.005-0.224-7.508l0.699-0.144c1.094,2.834,2.18,5.678,3.256,8.521
	C206.722,79.42,205.476,79.133,204.229,78.846z M195.528,66.064c0,0,2.027,0.752,2.089,3.525c0.018,0.494,0.018,0.969,0.036,1.417
	c0,6.602,0.081,13.186,0.233,19.761c2.233-0.511,4.484-1.013,6.727-1.48c-0.081-1.893-0.152-3.786-0.225-5.678
	c1.849,0.422,3.688,0.87,5.517,1.319c0.377,1.022,0.762,2.044,1.13,3.058c2.287-0.44,4.575-0.851,6.871-1.247
	c-3.067-7.794-6.261-15.562-9.561-23.294C204.058,64.243,199.788,65.113,195.528,66.064z M355.883,65.176
	c-8.674-1.804-10.181-1.436-10.997,2.987c-0.171,0.941-0.341,1.893-0.521,2.826c-0.377,2.089,0.323,3.605,2.925,5.067
	c1.794,1.005,3.561,2.037,5.319,3.059c1.372,0.789,2.26,1.364,2.071,2.224c-0.296,1.337-0.583,2.682-0.888,4.018
	c-0.099,0.449-1.444,0.467-2.171,0.314c-0.914-0.207-1.938-0.789-1.758-1.614c0.197-0.969,0.395-1.938,0.602-2.915
	c-2.656-0.099-5.293-0.171-7.93-0.225c-0.117,0.602-0.225,1.202-0.333,1.794c-0.833,4.557,0.629,5.23,8.63,6.907
	c4.404,0.951,6.942,1.489,8.494,0.735c1.086-0.521,1.391-1.372,1.695-2.61c0.44-1.821,0.87-3.643,1.319-5.454
	c0.448-1.884-0.036-3.328-2.979-5.06c-1.623-0.968-3.265-1.919-4.906-2.871c-1.354-0.78-2.314-1.345-2.135-2.215
	c0.161-0.754,0.314-1.516,0.475-2.278c0.145-0.745,1.229-0.987,2.252-0.763c1.175,0.243,2.081,0.807,1.901,1.643
	c-0.125,0.547-0.241,1.084-0.359,1.624c2.665,0.151,5.338,0.323,8.021,0.519c0.151-0.645,0.313-1.3,0.466-1.947
	C365.858,67.769,362.557,66.62,355.883,65.176z M170.725,72.306c-8.539,2.557-9.705,3.607-8.306,7.885
	c0.296,0.906,0.592,1.821,0.888,2.736c0.655,2.019,2.009,3.004,5.014,3.041c2.063,0.036,4.118,0.081,6.163,0.153
	c1.597,0.036,2.655,0.117,2.889,0.959c0.386,1.319,0.771,2.637,1.148,3.965c0.125,0.44-1.068,1.095-1.785,1.309
	c-0.897,0.261-2.082,0.234-2.324-0.583c-0.278-0.941-0.565-1.892-0.861-2.843c-2.387,1.175-4.763,2.376-7.122,3.597
	c0.188,0.583,0.367,1.157,0.565,1.731c1.425,4.404,3.058,4.296,10.934,1.947c4.341-1.274,6.844-2,7.84-3.4
	c0.718-0.977,0.583-1.883,0.251-3.121c-0.476-1.804-0.96-3.606-1.436-5.409c-0.501-1.884-1.605-2.916-5.041-3.042
	c-1.892-0.062-3.785-0.125-5.695-0.169c-1.57-0.046-2.683-0.082-2.942-0.924c-0.225-0.746-0.449-1.489-0.673-2.234
	c-0.215-0.726,0.628-1.461,1.624-1.749c1.157-0.341,2.233-0.278,2.476,0.538c0.152,0.538,0.296,1.068,0.458,1.606
	c2.422-1.157,4.861-2.278,7.31-3.373c-0.17-0.646-0.341-1.291-0.511-1.938C180.763,69.822,177.31,70.387,170.725,72.306"/>
<path fill="#FFFFFF" d="M277.011,442.04c-2.234,0-3.885-1.085-3.885-3.436l0.018-36.688c0-0.493,0-0.664,0-1.247
	c0-1.345,1.965-2.099,3.526-2.099c2.565,0,4.206,0.915,4.206,3.346c0.009,12.235,0.009,24.461,0.018,36.688c0,0.754,0,1.166,0,1.346
	C280.894,441.286,278.795,442.04,277.011,442.04z M283.549,454.724c13.464-0.422,15.519-2.942,15.492-13.993
	c-0.027-13.58-0.055-27.152-0.081-40.724c-0.027-12.675-3.157-14.102-22.058-14.102c-19.689,0-21.806,1.759-21.833,14.102
	c-0.036,13.581-0.063,27.161-0.099,40.732c-0.018,11.186,2.35,13.589,15.348,13.984l-14.989,11.194l15.024-3.049l20.228,12.799
	l13.93-14.172l-6.126,1.507L283.549,454.724z M433.6,394.473c-4.89-0.091-9.787,0.071-14.676,0
	c-1.856,8.234-3.714,16.648-5.579,24.73l-0.027,0.018c-0.798-0.467-1.524-0.888-2.322-1.337c-0.071-7.759,0.071-15.653,0-23.411
	c-2.233-0.036-16.074,0.009-16.927,0c0,0,2.727,2.906,2.772,7.947c0.035,5.032,0,8.861,0,8.861c0.125,15.079-0.127,30.157,0,45.227
	c4.718,0.494,9.453,1.006,14.154,1.562c-0.071-9.355,0.08-18.72,0-28.076c1.058,0.619,2.152,1.22,3.211,1.84
	c2.313,9.041,4.62,18.173,6.925,27.429c4.987,0.619,9.966,1.274,14.944,1.965c-3.489-12.621-6.988-24.999-10.478-37.162
	C428.262,414.502,430.935,404.313,433.6,394.473z M67.948,402.832c1.587-5.588,3.175-11.267,4.754-16.738
	c-10.468,0.01-42.625,0-43.666,0c0,0.01,3.112,4.871,3.112,12.783c0,0.969,0.009,61.498,0,85.25
	c11.356-2.673,22.712-5.148,34.131-7.444c0.862-5.751,1.741-11.474,2.602-17.16c-6.189,0.995-12.37,2.046-18.541,3.14
	c0.018-7.589,0.045-15.159,0.063-22.738c5.794-0.719,11.59-1.409,17.393-2.073c0.018-5.562,0.045-11.132,0.072-16.692
	c-5.803,0.457-11.606,0.915-17.419,1.408l0.054-19.053C56.322,403.271,62.135,403.048,67.948,402.832z M229.362,415.022v0.727
	c-2.358-1.067-4.745-2.135-7.104-3.193c0.036-6.243-0.035-11.84,0-18.083c-2.448,0.018-16.334-0.009-17.186,0
	c0,0,2.413,2.242,2.386,6.979c-0.026,4.745,0,8.36,0,8.36c-0.099,14.199,0.081,28.398,0,42.606c4.942-0.296,9.849-0.564,14.8-0.807
	c0.036-7.724-0.044-15.446,0-23.179c2.36,1.04,4.736,2.081,7.104,3.121c-0.036,6.585,0.027,13.159,0,19.743
	c4.979-0.215,9.921-0.376,14.908-0.521v-56.304c-4.96,0.018-9.957-0.027-14.908,0C229.326,401.549,229.389,407.954,229.362,415.022z
	 M329.592,394.473c0.063,14.845,0,41.324,0,43.639c0,2.574-1.812,2.978-3.3,2.933c-1.777-0.071-3.517-0.978-3.526-2.96v-43.611
	c-2.476-0.019-16.666,0-17.518,0c0,0,2.619,1.955,2.628,6.575c0.009,4.583-0.027,28.229,0,38.283
	c0.035,10.684,2.709,11.795,18.46,12.433c16.128,0.735,18.209-0.413,18.155-11.141v-46.15
	C339.532,394.437,334.544,394.5,329.592,394.473z M367.195,428.002c0.825-6.97,1.641-13.948,2.458-20.954
	c0.564,0.019,1.13,0.027,1.694,0.036c1.068,8.271,2.136,16.567,3.203,24.892C372.102,430.648,369.653,429.312,367.195,428.002z
	 M356.978,394.473c0,0,2.314,2.135,2.557,6.548c-3.05,17.348-6.109,34.553-9.177,51.586c4.602,0.287,9.212,0.602,13.814,0.951
	c0.537-4.521,1.076-9.069,1.614-13.607c3.507,1.92,7.023,3.866,10.539,5.848c0.386,2.952,0.754,5.876,1.131,8.836
	c4.664,0.404,9.32,0.834,13.975,1.292c-3.804-20.882-7.589-41.182-11.374-61.453C375.689,394.418,356.978,394.473,356.978,394.473z
	 M500.111,386.094c-19.258,0.027-22.316,1.597-22.227,17.798c0.018,3.444,0.036,6.897,0.054,10.342
	c0.044,7.624,2.233,12.665,8.603,16.737c4.359,2.799,8.709,5.688,13.06,8.657c3.4,2.224,4.934,3.829,4.951,7.193
	c0.009,4.242,0.018,8.495,0.028,12.737c0.009,0.933,0.009,1.507,0.009,1.74c0,1.73-2.315,2.476-4.001,2.18
	c-2.152-0.387-4.01-2.072-4.027-5.266l-0.046-12.656c-6.116,2.646-12.244,5.185-18.36,7.624c0.009,1.292,0.009,2.593,0.018,3.884
	c0.09,16.55,3.74,18.864,22.577,22.883c10.379,2.233,16.315,3.444,19.357-0.207c2.126-2.529,2.342-6.099,2.342-11.167v-3.965
	c0-6.1,0-12.209,0-18.316c0-7.696-1.813-13.043-9.062-17.788c-4.009-2.637-8.019-5.211-12.037-7.714
	c-3.292-2.099-4.942-3.562-4.951-6.853c-0.009-2.503-0.018-5.005-0.026-7.517c-0.009-2.835,1.516-4.477,3.794-4.396
	c2.602,0.089,4.144,1.516,4.152,4.771c0.009,2.602,0.009,5.193,0.019,7.795c6.028-3.13,12.074-6.396,18.111-9.813
	c0,0,0-4.359,0-6.459c0-7.911,3.095-12.217,3.095-12.227C518.241,386.094,501.34,386.094,500.111,386.094z M91.673,435.105
	c0.906-7.453,1.83-14.89,2.753-22.254c0.565-0.036,1.122-0.063,1.687-0.09c0.968,8.639,1.919,17.214,2.888,25.753
	C96.553,437.394,94.112,436.254,91.673,435.105z M81.967,394.473c0,0,3.185,4.215,2.458,9.409
	c-0.736,5.193-6.809,42.437-10.19,64.351c4.547-0.808,9.104-1.597,13.67-2.351c0.673-5.579,1.346-11.078,2.027-16.604
	c3.596,1.606,7.212,3.177,10.827,4.728c0.359,3.202,0.726,6.449,1.085,9.651c4.637-0.717,9.266-1.398,13.903-2.044
	c-3.57-21.654-7.14-44.545-10.728-67.141C100.67,394.553,83.232,394.445,81.967,394.473z M144.058,410.493
	c-0.019,2.305-0.037,4.609-0.063,6.916c-0.009,0.762-0.009,1.398-0.018,1.713c-0.01,1.874-0.664,2.538-3.167,2.682
	c-0.466,0.027-3.086,0.099-3.642,0.134l0.126-15.428c0.466-0.026,3.095-0.116,3.552-0.125c3.148-0.108,3.238,0.682,3.22,3.327
	L144.058,410.493z M158.858,417.83c0.027-3.525,0.063-7.059,0.09-10.594c0.089-10.971-2.207-12.988-18.245-12.764
	c-3.579,0.045-19.859-0.019-20.712,0c0.01,0,2.288,3.623,2.243,8.942c-0.153,19.106,0.161,38.221,0,57.327
	c4.951-0.663,9.669-1.3,14.621-1.901c0.08-8.854,0.153-17.698,0.224-26.542c0.843-0.072,1.695-0.135,2.538-0.197
	c3.256,8.539,6.513,16.989,9.76,25.277c4.511-0.502,9.015-0.979,13.527-1.417c-3.391-8.486-6.781-17.133-10.164-25.861
	C157.836,428.289,158.795,424.943,158.858,417.83z M467.649,408.582c1.328-4.261,2.665-9.777,3.992-14.109
	c0,0-31.619,0.018-32.471,0c0,0,2.699,3.821,2.744,9.247c0.018,2.153-0.135,41.245,0,58.377c8.611,1.238,17.518,2.565,26.103,4.01
	c-0.036-4.359-0.054-8.701-0.09-13.052c-3.677-0.52-7.525-1.014-11.221-1.497c-0.046-6.504,0.045-12.998,0-19.501
	c3.695,0.341,7.408,0.7,11.096,1.059c-0.019-3.821-0.045-7.643-0.063-11.464c-3.696-0.278-7.338-0.538-11.033-0.798v-12.792
	C460.402,408.232,463.955,408.394,467.649,408.582z M162.886,394.473c0,0,2.529,2.808,2.493,7.768
	c-0.045,4.979-0.037,3.615-0.037,3.615c0.584-0.018,1.176-0.036,1.758-0.054c2.872-0.071,5.562-0.145,8.432-0.225v49.209
	c4.943-0.43,9.868-0.834,14.81-1.211c0.116-16.118-0.117-32.229,0-48.357c2.906-0.053,5.983-0.116,8.88-0.17l0.082-10.575
	C191.024,394.544,163.773,394.454,162.886,394.473"/>
<path fill="#B0B0B0" d="M290.062,471.147c-2.108-1.336-19.017-12.037-19.017-12.037l-5.059,1.022
	c-1.139,0.852-2.279,1.704-3.399,2.538c3.714-0.744,8.108-1.642,8.108-1.642l19.636,12.424l8.261-8.423c0,0-0.664-0.368-1.713-0.951
	C293.838,467.21,291.003,470.179,290.062,471.147"/>
<path fill="#B0B0B0" d="M179.14,401.872l-10.172,0.27c0.108-2.467-0.592-4.521-1.265-5.93c-0.951,0-1.597,0-1.786,0
	c0.629,1.472,1.203,3.436,1.203,5.902c0,0.045-0.009,1.05-0.019,1.946l10.172-0.277c0,0,0,45.621,0,49.119
	c2.53-0.206,9.131-0.753,11.32-0.933v-1.759c-2.889,0.233-7.446,0.61-9.454,0.764C179.14,447.485,179.14,401.872,179.14,401.872z
	 M151.717,453.558l-9.75-25.224l-0.609,0.107l-4.145,0.323c0,0,0,0.69-0.009,1.776l2.278-0.18l1.301-0.09
	c0,0,8.88,22.999,9.741,25.232c1.767-0.179,7.13-0.753,9.92-1.041c-0.153-0.376-0.395-1.004-0.682-1.74L151.717,453.558z
	 M125.84,401.353c0-1.83-0.628-3.749-1.193-5.141c-0.987,0-1.705,0-1.929,0c0.646,1.75,1.265,4.181,1.265,7.06v55.489
	c2.602-0.341,9.078-1.185,11.15-1.454c0-0.287,0.009-0.915,0.009-1.767c-2.808,0.358-7.239,0.941-9.302,1.21V401.353z
	 M190.459,403.486c2.153-0.053,5.562-0.116,7.042-0.151c0-0.539,0.009-1.193,0.009-1.875c-2.843,0.063-7.05,0.144-7.05,0.144
	S190.459,402.295,190.459,403.486z M232.968,447.574c0-2.422,0-18.325,0-18.325l-10.584-4.646c0,0,0,0.753,0,1.991l7.669,3.364
	l1.049,0.466c0,0,0,16.648,0,19.062c2.44-0.081,9.122-0.314,11.418-0.395v-1.849C239.561,447.332,234.915,447.503,232.968,447.574z
	 M104.966,459.611c-0.25-2.188-0.915-8.045-0.915-8.045l-13.876-6.047l-0.108,1.634l-0.036,0.269l12.343,5.392
	c0,0,0.753,6.673,1.004,8.853c2.324-0.341,8.083-1.184,10.37-1.516c-0.045-0.287-0.135-0.915-0.288-1.795
	C110.681,458.77,106.743,459.352,104.966,459.611z M211.055,402.097c0-2.61-0.494-4.529-1.023-5.885h-1.901
	c0.565,1.301,1.067,2.952,1.067,5.149v49.209c2.467-0.126,9.069-0.484,11.32-0.609v-1.821c-2.924,0.161-7.49,0.413-9.463,0.52
	V402.097z M50.618,401.765c4.207-0.171,14.289-0.557,16.002-0.628c0.153-0.556,0.359-1.246,0.521-1.865
	c-4.396,0.17-16.514,0.646-16.514,0.646L50.618,401.765z M144.766,405.657c1.059,1.041,1.05,2.512,1.042,4.073l-0.01,0.78v-0.009
	l-0.072,8.638c-0.009,0.799-0.153,1.427-0.358,1.974c1.273-0.547,2.197-1.651,2.215-3.894c0,0,0.072-6.844,0.072-8.628
	c0-5.284-3.776-5.84-6.477-5.769l-3.749,0.081l-0.018,1.855l3.382-0.106C142.488,404.591,143.815,404.742,144.766,405.657z
	 M232.968,396.212c-0.771,0-1.445,0-1.866,0v19.475l1.866,0.834V396.212z M155.835,425.67c-0.529,0.332-1.112,0.628-1.812,0.87
	l-1.705,0.602l0.421,1.075C154.167,427.616,155.163,426.862,155.835,425.67z M84.918,396.212c0.7,1.588,1.355,3.67,1.355,6.101
	c0,0.582-0.036,1.192-0.135,1.812l-3.731,23.592c0,0-5.408,34.147-6.072,38.391c2.897-0.503,8.297-1.436,9.992-1.722
	c0.046-0.368,0.135-1.05,0.243-1.92l-8.091,1.354l5.803-38.024c0,0,3.104-18.441,3.758-22.38c0.449-2.763-0.457-5.346-1.282-7.193
	C86.21,396.222,85.564,396.222,84.918,396.212z M100.732,438.317l0.027,0.26l1.911,0.906l-3.427-30.471l-4.494,0.261l-0.233,1.829
	l3.139-0.171L100.732,438.317z M50.528,438.004v0.152c4.054-0.485,13.526-1.605,15.536-1.848c0-0.386,0-1.005,0-1.704
	c-4.754,0.573-15.545,1.856-15.545,1.856L50.528,438.004z M35.755,396.957c0-3.804-1.194-6.844-2.189-9.113h-1.793
	c0.969,2.35,2.117,6.036,2.117,11.033c0,0,0,78.98,0,83.089c10.298-2.396,20.649-4.674,30.848-6.728
	c0.053-0.368,0.152-1.031,0.277-1.866c-9.688,1.974-19.5,4.126-29.259,6.396C35.755,475.66,35.755,396.957,35.755,396.957"/>
<path fill="#B0B0B0" d="M423.795,424.056l5.211-19.205c0,0,1.57-5.849,2.324-8.639h-1.839c-1.857,6.862-7.57,27.844-7.57,27.844
	s8.036,28.551,9.274,32.946c-2.539-0.332-6.692-0.888-9.141-1.211c0.233,0.941,0.403,1.623,0.476,1.893
	c1.623,0.215,7.911,1.05,11.149,1.471c-1.238-4.412-9.76-34.614-9.76-34.614L423.795,424.056z M340.769,396.212
	c0.045,8.872,0.252,42.778,0.252,42.886c0,4.342-0.054,6.8-1.193,7.911c-1.839,1.768-7.033,1.48-15.464,1.096
	c-7.356-0.297-11.474-0.71-13.796-1.902c1.515,2.753,5.462,3.399,15.841,3.821c8.44,0.386,13.061,0.252,14.891-1.517
	c1.147-1.104,1.452-3.147,1.452-7.489c0-0.134,0.018-41.604,0-44.806H340.769z M376.811,396.212
	c1.821,9.804,9.66,52.143,10.342,55.856c-2.171-0.206-5.911-0.61-8.378-0.869c0.107,0.807,0.188,1.461,0.233,1.829
	c1.856,0.17,7.463,0.69,10.298,0.959c-0.764-4.09-10.217-55.164-10.701-57.775H376.811z M362.853,434.272
	c0,0-1.561,13.392-1.812,15.509c-1.633-0.107-5.463-0.35-8.315-0.538c-0.152,0.843-0.261,1.462-0.313,1.758
	c2.476,0.17,8.055,0.548,10.226,0.699c0.241-2.107,1.417-11.956,1.417-11.956l0.296-2.584l11.688,6.485
	c-0.17-1.354-0.296-2.35-0.296-2.35L362.853,434.272z M407.407,423.875c0,0-0.009,27.432-0.009,30.328
	c-1.938-0.207-6.055-0.699-8.817-1.031v1.775c2.09,0.233,8.153,0.897,10.674,1.176c0-2.906,0-26.111,0-26.111l0.018-3.023
	l4.746,2.735c-0.377-1.533-0.619-2.484-0.619-2.484L407.407,423.875z M520.412,387.844c-1.069,2.188-1.751,5.472-1.751,9.724v5.104
	c-1.157,0.628-8.278,4.476-12.601,6.817c0.007,1.04,0.018,2.026,0.018,2.188c3.523-1.92,13.265-7.193,14.629-7.93v-5.444
	c0-4.835,1.068-8.243,2.019-10.459H520.412z M464.412,454.338c0,2.296-0.019,5.651,0,7.625c-2.764-0.422-15.474-2.413-20.748-3.248
	v1.893c2.432,0.377,19.34,2.97,22.596,3.463c-0.009-2.502-0.054-7.543-0.063-9.49C465.784,454.526,465.146,454.437,464.412,454.338z
	 M514.616,431.563c3.275,3.605,4.036,7.642,4.045,12.809v22.282c0,5.247,0.207,8.332-1.443,10.297
	c-2.313,2.771-8.145,1.157-18.154-0.996c-8.944-1.911-14.2-3.614-17.259-6.503c2.457,4.736,7.849,6.351,19.312,8.791
	c10.012,2.153,15.339,3.148,17.654,0.376c1.65-1.955,1.947-4.798,1.937-10.046v-22.281
	C520.707,440.192,519.63,435.662,514.616,431.563z M465.012,404.851l-11.813-0.521v16.218c0,0,0.709,0.054,1.767,0.125V406.24
	l11.393,0.53c0.484-1.731,2.396-8.495,2.979-10.559h-1.884C466.644,399.064,465.398,403.505,465.012,404.851z M275.001,395.279
	c-2.951,0-5.463,1.696-5.463,6.127l-0.018,35.287c0,1.463,0.305,2.719,1.21,3.634c0.369,0.367,0.826,0.654,1.301,0.888
	c-0.414-0.754-0.656-1.623-0.656-2.61l0.028-37.935c0-2.412,2.682-3.848,5.266-3.848c1.192,0,2.107,0.198,2.87,0.484
	C278.697,396.212,277.28,395.279,275.001,395.279z M454.965,430.146c0,0,8.459,0.799,11.087,1.05
	c-0.009-2.215-0.044-6.01-0.054-7.93c-0.412-0.027-1.049-0.072-1.803-0.125c0.009,1.964,0.027,4.439,0.036,6.072
	c-2.629-0.26-11.033-0.987-11.033-0.987v22.954c0,0,0.709,0.1,1.767,0.243V430.146z M409.254,396.212c-0.448,0-1.094,0-1.856,0
	c0,5.705,0,20.766,0,20.766l1.856,1.113V396.212z M496.299,418.907c-1.014-1.274-1.632-2.817-1.641-4.961l-0.027-7.525
	c-0.01-1.974,0.601-3.616,1.749-4.736c0.995-0.969,2.331-1.453,3.847-1.4c1.177,0.045,2.173,0.332,3.016,0.808
	c-0.825-1.569-2.296-2.386-4.521-2.386c-3.229,0-5.947,2.816-5.947,8.02v5.302C492.792,415.346,494.173,417.256,496.299,418.907z
	 M496.084,462.492c-0.799-1.167-1.256-2.611-1.266-4.271c0,0-0.026-6.772-0.035-10.055c-0.539,0.224-1.247,0.521-2.037,0.853
	c0,3.327,0.02,7.283,0.02,7.283C492.784,459.083,494.04,461.316,496.084,462.492z M258.066,449.378l0.753,0.995
	c1.956,1.965,6.172,2.548,13.778,2.655l2.529-1.894h-0.17C266.067,451.162,260.865,450.875,258.066,449.378z M368.119,405.264
	l2.96,0.071l-0.251-1.866l-4.314-0.054l-2.781,23.717l1.705,0.942L368.119,405.264z M294.009,389.682
	c1.129,1.849,1.327,4.53,1.345,8.414l0.08,40.725c0.019,5.508-0.196,8.557-1.694,10.055c-2.153,2.162-7.66,2.278-16.612,2.26
	l3.408,1.911c8.064-0.09,12.684-0.655,14.721-2.69c1.507-1.508,2.063-4.117,2.044-9.625l-0.089-40.715
	C297.203,394.5,296.852,391.396,294.009,389.682z M321.565,440.192c-0.332-0.628-0.529-1.337-0.538-2.108c0,0,0-38.66,0-41.872
	h-1.866c0,8.54,0,39.953,0,39.953C319.169,437.949,320.067,439.395,321.565,440.192"/>
<path fill="#FFFFFF" d="M378.46,251.563c16.219,15.554,28.229,34.086,35.917,55.013c-5.679-4.853-11.519-8.916-12.182-9.364
	c-1.364-6.44-6.907-27.044-24.291-44.375C378.04,252.54,378.209,252.137,378.46,251.563z M265.915,346.626
	c0.476,0.449,27.18,25.448,31.09,29.117c-4.609-1.445-10.862-2.153-19.859-2.153c-20.864,0-26.327,2.924-30.157,9.4
	c-0.663,0-41.8,0-43.406,0c1.588-7.167,3.472-14.262,5.634-21.114C209.915,361.687,265.233,346.806,265.915,346.626z
	 M179.767,312.631c9.132,24.855,21.833,42.257,25.816,47.352c-2.385,7.463-4.449,15.195-6.153,23.008c-0.978,0-34.463,0-35.163,0
	c-8.494-13.149-16.864-27.008-24.847-41.226c0.207-0.547,8.243-21.762,8.468-22.354C166.097,314.461,175.99,313.034,179.767,312.631
	z M171.228,256.2c8.001-8.387,17.043-15.85,26.875-22.165c11.23-4.27,19.528-4.547,23.134-4.413
	c-1.552,6.314-2.082,13.132-2.082,19.124c0,7.607,0.745,13.76,1.059,15.957c-26.722,20.551-37.503,38.445-40.347,43.854
	c-3.632,0.35-13.481,1.695-32.193,6.745c-2.897-6.493-3.947-14.271-4.261-17.527C150.229,282.393,159.585,268.408,171.228,256.2z
	 M400.76,301.122c2.861,2.026,11.239,8.126,16.487,13.652l0.888,2.986c0.951,3.624,1.956,8.504,2.844,13.742
	c-9.58,17.644-19.843,34.974-30.525,51.487c-0.664,0-12.504,0-13.194,0c-3.947-7.337-7.337-11.938-9.149-14.19
	c2.467-5.337,9.293-22.612,9.293-50.231c0-2.197-0.054-4.467-0.144-6.79C377.995,311.446,400.115,301.409,400.76,301.122z
	 M375.322,248.692c-0.171,0.395-0.35,0.807-0.583,1.345c-3.911-2.502-24.156-14.97-44.922-17.679
	c-16.657-14.039-38.409-19.412-53.883-21.475C312.774,210.507,347.756,223.738,375.322,248.692z M266.938,213.925
	c13.948,1.032,40.347,5.14,59.632,20.989c0.368,1.974,0.843,5.338,0.843,10.038c0,5.642-0.699,13.132-3.049,22.102
	c-8.567,0.816-25.888,3.937-48.815,15.607c-27.161-15.805-45.711-18.541-51.416-19.007c-0.358-2.78-0.96-8.395-0.96-15.061
	c0-6.342,0.565-13.535,2.414-19.895C242.978,217.917,257.671,214.706,266.938,213.925z M325.7,270.991
	c5.238,2.477,23.483,12.378,47.495,39.782c0.127,2.619,0.181,5.157,0.181,7.615c0,28.131-7.41,45.514-9.203,49.308
	c-26.148,12.03-46.321,15.617-52.286,16.47c-0.449-0.431-42.868-40.141-43.352-40.599c0.098-0.655,8.422-56.493,8.522-57.156
	C300.808,274.275,318.874,271.584,325.7,270.991"/>
<path fill="#B0B0B0" d="M362.297,240.485c0,0-6.835-6.844-28.05-13.707c0,0-8.118-4.072-15.895-4.96c0,0,7.849,3.167,13.007,7.337
	C331.36,229.156,341.873,229.73,362.297,240.485z M349.515,290.851c15.105,15.475,18.595,24.946,18.595,24.946
	c1.247,25.071-17.644,47.559-17.644,47.559c-10.701,8.1-28.347,12.764-32.902,12.917c-4.557,0.144-26.498-15.581-26.498-15.581
	l22.982,19.806c28.604-4.575,48.742-16.612,48.742-16.612c8.243-13.5,9.4-49.119,8.871-50.932
	C371.151,311.15,349.515,290.851,349.515,290.851z M323.152,236.484c0,0-2.628,17.877-6.126,22.551c0,0-20.9,2.941-41.137,12.234
	c0,0-9.4-8.808-47.335-10.791c0,0,21.959,2.018,47.542,17.168c0,0,16.532-10.998,44.267-14.164
	C320.363,263.483,325.466,251.931,323.152,236.484z M215.656,242.198c-4.771,7.669-4.26,18.272-4.26,18.272
	c-24.533,17.662-35.889,39.118-35.889,39.118c-14.504,3.185-26.12,10.854-26.12,10.854c17.608-6.028,28.066-6.827,28.066-6.827
	c17.366-27.914,38.374-41.809,38.374-41.809C214.122,251.366,215.656,242.198,215.656,242.198z M410.528,300.763
	c0,0-6.027-17.132-17.419-30.919c0,0,8.62,12.495,11.285,24.73L410.528,300.763z M414.701,317.51c0,0-7.096-7.982-13.591-11.418
	l-19.365,7.902c0,0,1.847,29.609-8.772,54.134c0,0,4.502,7.328,8.987,14.862h9.239c10.02-15.508,19.195-30.9,27.438-45.827
	C417.194,329.744,415.068,318.649,414.701,317.51z M196.218,362.8c0,0-3.588,9.141-6.288,20.19h5.472
	c1.524-6.171,3.668-13.051,6.745-20.38c0,0-15.016-20.29-23.169-39.862C178.978,322.748,183.687,341.747,196.218,362.8"/>
<polyline points="380.721,478.484 384.202,478.484 384.202,488.998 385.466,488.998 385.466,478.484 389.135,478.484 
	389.135,477.221 380.721,477.221 380.721,478.484 "/>
<polyline points="398.885,477.221 395.872,486.81 392.84,477.221 390.821,477.221 390.821,488.998 392.077,488.998 392.077,478.996 
	395.235,488.998 396.5,488.998 399.648,478.996 399.648,488.998 400.913,488.998 400.913,477.221 398.885,477.221 "/>
</svg>
