<svg width="1920" height="1225" viewBox="0 0 1920 1225" fill="none" xmlns="http://www.w3.org/2000/svg">
<g clip-path="url(#clip0_849_3373)">
<path d="M736.303 0C372.467 0 0 306.071 0 941.917H309.814C324.326 868.864 344.656 802.081 369.973 741.444C306.553 741.695 273.308 742.071 273.308 742.071C273.308 376.052 576.345 199.846 763.921 199.846H1364.88C1364.88 230.823 1362.71 260.295 1358.74 288.451C1347.87 364.765 1323.13 430.795 1288.93 487.043C1182.67 661.744 985.189 742.071 829.004 742.071C758.871 741.695 694.875 741.444 637.208 741.318C600.767 798.381 574.044 865.164 562.664 941.917H852.083C1206.01 941.917 1453.04 804.84 1566.97 487.043C1588.39 427.346 1605.14 361.253 1616.96 288.451C1631.03 201.915 1638.25 105.912 1638.25 0H736.303Z" fill="black"/>
<path d="M1616.91 288.45C1605.09 361.253 1588.34 427.283 1566.92 487.042H1920.02V288.45H1616.91Z" fill="#9DC73B"/>
<path d="M1654.94 1025.76H556.526C556.526 996.597 558.636 968.63 562.664 941.854C574.044 865.101 600.831 798.256 637.208 741.256C746.34 570.254 942.227 486.98 1071.37 486.98H1288.93C1323.13 430.732 1347.87 364.702 1358.74 288.388H1035.18C750.943 288.388 497.198 436.752 369.973 741.381C344.656 801.956 324.39 868.801 309.814 941.854C292.808 1027.39 283.602 1121.51 283.602 1224.29H1919.49V689.773H1654.94V1025.76V1025.76Z" fill="#9DC73B"/>
</g>
<defs>
<clipPath id="clip0_849_3373">
<rect width="1920" height="1224.35" fill="white"/>
</clipPath>
</defs>
</svg>
